<svg width="30" height="30" viewBox="0 0 30 30" fill="none" xmlns="http://www.w3.org/2000/svg">
<circle cx="15" cy="15" r="15" fill="black"/>
<g clip-path="url(#clip0_3601_4909)">
<path d="M17.2841 19.784C17.2516 21.0569 17.119 22.3145 16.7139 23.5296C16.5241 24.0995 16.2697 24.6378 15.8196 25.0581C15.2969 25.5455 14.8645 25.55 14.3388 25.0459C13.7809 24.5098 13.5152 23.807 13.322 23.0838C12.9499 21.6901 12.8486 20.2583 12.8747 18.8232C12.8965 17.6242 13.9043 16.6691 15.0742 16.6619C16.2181 16.6549 17.178 17.5371 17.2786 18.7104C17.3098 19.0656 17.2841 19.4267 17.2841 19.784Z" fill="#F9FCFE"/>
<path d="M12.8594 13.803C12.8535 12.5439 13.9023 11.5232 15.1895 11.5365C16.3099 11.548 17.3173 12.597 17.3288 13.764C17.3408 14.9851 16.3149 16.0164 15.0858 16.0192C13.8722 16.0221 12.8659 15.0195 12.8594 13.803Z" fill="#F9FCFE"/>
<path d="M24.2517 13.423C23.7913 8.68481 19.5159 5.04398 14.6547 5.25826C9.85687 5.46971 5.98651 9.52866 5.99979 14.3829C6.01307 19.2097 9.58466 22.3695 12.2793 23.0426C12.1947 22.6313 12.1239 22.2183 12.067 21.8037C11.9605 21.6657 11.8057 21.5552 11.5925 21.4531C8.57357 20.0032 6.79115 16.5403 7.31815 13.2446C8.04287 8.71291 12.2397 5.8042 16.7751 6.68986C20.9719 7.50953 23.8153 11.8753 22.8632 16.0429C22.2733 18.6254 20.7726 20.4814 18.3914 21.6339C18.299 21.6785 18.1825 21.6933 18.1146 21.7743C18.0562 22.2231 17.9822 22.6696 17.8885 23.1129C20.9948 22.3187 24.7713 18.7493 24.2517 13.423Z" fill="#F9FCFE"/>
<path d="M20.9084 13.096C20.2333 10.2803 17.6874 8.39447 14.7182 8.48375C12.0179 8.5652 9.60502 10.6895 9.10307 13.4122C8.57324 16.2868 10.3099 18.7911 11.872 19.5356C11.8526 19.0306 11.8471 18.5245 11.853 18.018C11.8269 17.9796 11.7969 17.9439 11.7635 17.9115C10.8639 17.0263 10.3949 15.9499 10.3095 14.6886C10.1041 11.6584 13.0669 9.10439 16.0259 9.78077C17.8651 10.2011 19.129 11.2951 19.6565 13.1111C20.193 14.9577 19.7266 16.5853 18.3499 17.9411C18.3381 17.9524 18.3259 17.9631 18.3131 17.9731C18.3244 18.3817 18.302 18.793 18.302 19.2024C18.2991 19.3144 18.2956 19.4262 18.2917 19.5378C20.1009 18.5568 21.5822 15.9054 20.9084 13.096Z" fill="#F9FCFE"/>
</g>
<defs>
<clipPath id="clip0_3601_4909">
<rect width="18.3" height="20.1732" fill="white" transform="translate(6 5.25)"/>
</clipPath>
</defs>
</svg>
