<svg width="65" height="19" viewBox="0 0 65 19" fill="none" xmlns="http://www.w3.org/2000/svg">
<path d="M1.136 16H2.688V7.856L6.304 16H7.44L11.088 7.856V16H12.64V4.8H11.072L6.976 13.744L2.976 4.8H1.136V16ZM14.9173 4.8V16H21.3493V14.528H16.4693V10.816H20.8213V9.344H16.4693V6.272H21.3493V4.8H14.9173ZM23.3079 4.8V16H24.8599V7.728L30.6679 16H32.0279V4.8H30.4919V13.088L24.6999 4.8H23.3079ZM38.6435 16.16C41.1235 16.16 42.9635 14.288 42.9635 11.776V4.8H41.4115V11.776C41.4115 13.424 40.2435 14.656 38.6435 14.656C37.0435 14.656 35.8755 13.424 35.8755 11.776V4.8H34.3235V11.776C34.3235 14.288 36.1635 16.16 38.6435 16.16Z" fill="#00B388"/>
<line x1="51" y1="6" x2="65" y2="6" stroke="#00B388" stroke-width="2"/>
<line x1="51" y1="13" x2="65" y2="13" stroke="#00B388" stroke-width="2"/>
</svg>
