<svg width="24" height="24" viewBox="0 0 24 24" fill="none" xmlns="http://www.w3.org/2000/svg">
<path fill-rule="evenodd" clip-rule="evenodd" d="M18.0937 0.516189C16.7402 0.203811 14.5153 0 12 0C9.48474 0 7.25985 0.203811 5.90633 0.516189C3.20767 1.08249 1.08249 3.20767 0.516189 5.90633C0.203811 7.25985 0 9.48474 0 12C0 14.5153 0.203811 16.7402 0.516189 18.0937C1.08249 20.7923 3.20767 22.9175 5.90633 23.4838C7.25985 23.7962 9.48474 24 12 24C14.5153 24 16.7402 23.7962 18.0937 23.4838C20.7923 22.9175 22.9175 20.7923 23.4838 18.0937C23.7962 16.7402 24 14.5153 24 12C24 9.48474 23.7962 7.25985 23.4838 5.90633C22.9175 3.20767 20.7923 1.08249 18.0937 0.516189Z" fill="#ECECEA"/>
<mask id="mask0_3601_4930" style="mask-type:luminance" maskUnits="userSpaceOnUse" x="0" y="0" width="24" height="24">
<path fill-rule="evenodd" clip-rule="evenodd" d="M18.0937 0.516189C16.7402 0.203811 14.5153 0 12 0C9.48474 0 7.25985 0.203811 5.90633 0.516189C3.20767 1.08249 1.08249 3.20767 0.516189 5.90633C0.203811 7.25985 0 9.48474 0 12C0 14.5153 0.203811 16.7402 0.516189 18.0937C1.08249 20.7923 3.20767 22.9175 5.90633 23.4838C7.25985 23.7962 9.48474 24 12 24C14.5153 24 16.7402 23.7962 18.0937 23.4838C20.7923 22.9175 22.9175 20.7923 23.4838 18.0937C23.7962 16.7402 24 14.5153 24 12C24 9.48474 23.7962 7.25985 23.4838 5.90633C22.9175 3.20767 20.7923 1.08249 18.0937 0.516189Z" fill="white"/>
</mask>
<g mask="url(#mask0_3601_4930)">
<path opacity="0.4" d="M9.21781 18.0961C14.8758 18.0961 17.9718 13.4041 17.9718 9.34205C17.9718 9.21005 17.9718 9.07805 17.9658 8.94605C18.5658 8.51405 19.0878 7.96805 19.5018 7.35005C18.9498 7.59605 18.3558 7.75805 17.7318 7.83605C18.3678 7.45805 18.8538 6.85205 19.0878 6.13205C18.4938 6.48605 17.8338 6.73805 17.1318 6.87605C16.5678 6.27605 15.7698 5.90405 14.8878 5.90405C13.1898 5.90405 11.8098 7.28405 11.8098 8.98205C11.8098 9.22205 11.8398 9.45605 11.8878 9.68405C9.33181 9.55805 7.06381 8.32805 5.54581 6.46805C5.28181 6.92405 5.13181 7.45205 5.13181 8.01605C5.13181 9.08405 5.67781 10.0261 6.49981 10.5781C5.99581 10.5601 5.52181 10.4221 5.10781 10.1941C5.10781 10.2061 5.10781 10.2181 5.10781 10.2361C5.10781 11.7241 6.16981 12.9721 7.57381 13.2541C7.31581 13.3261 7.04581 13.3621 6.76381 13.3621C6.56581 13.3621 6.37381 13.3441 6.18781 13.3081C6.57781 14.5321 7.71781 15.4201 9.06181 15.4441C8.00581 16.2721 6.67981 16.7641 5.23981 16.7641C4.99381 16.7641 4.74781 16.7521 4.50781 16.7221C5.86381 17.5861 7.48381 18.0961 9.21781 18.0961Z" fill="#101820"/>
</g>
</svg>
