<svg width="24" height="24" viewBox="0 0 24 24" fill="none" xmlns="http://www.w3.org/2000/svg">
<path fill-rule="evenodd" clip-rule="evenodd" d="M18.0937 0.516189C16.7402 0.203811 14.5153 0 12 0C9.48474 0 7.25985 0.203811 5.90633 0.516189C3.20767 1.08249 1.08249 3.20767 0.516189 5.90633C0.203811 7.25985 0 9.48474 0 12C0 14.5153 0.203811 16.7402 0.516189 18.0937C1.08249 20.7923 3.20767 22.9175 5.90633 23.4838C7.25985 23.7962 9.48474 24 12 24C14.5153 24 16.7402 23.7962 18.0937 23.4838C20.7923 22.9175 22.9175 20.7923 23.4838 18.0937C23.7962 16.7402 24 14.5153 24 12C24 9.48474 23.7962 7.25985 23.4838 5.90633C22.9175 3.20767 20.7923 1.08249 18.0937 0.516189Z" fill="#ECECEA"/>
<mask id="mask0_3601_4934" style="mask-type:luminance" maskUnits="userSpaceOnUse" x="0" y="0" width="24" height="24">
<path fill-rule="evenodd" clip-rule="evenodd" d="M18.0937 0.516189C16.7402 0.203811 14.5153 0 12 0C9.48474 0 7.25985 0.203811 5.90633 0.516189C3.20767 1.08249 1.08249 3.20767 0.516189 5.90633C0.203811 7.25985 0 9.48474 0 12C0 14.5153 0.203811 16.7402 0.516189 18.0937C1.08249 20.7923 3.20767 22.9175 5.90633 23.4838C7.25985 23.7962 9.48474 24 12 24C14.5153 24 16.7402 23.7962 18.0937 23.4838C20.7923 22.9175 22.9175 20.7923 23.4838 18.0937C23.7962 16.7402 24 14.5153 24 12C24 9.48474 23.7962 7.25985 23.4838 5.90633C22.9175 3.20767 20.7923 1.08249 18.0937 0.516189Z" fill="white"/>
</mask>
<g mask="url(#mask0_3601_4934)">
<path opacity="0.4" d="M12.5477 19V12.6228H14.6197L14.9302 10.1267H12.5477V8.53692C12.5477 7.81594 12.7406 7.32461 13.7371 7.32461H15V5.09807C14.7802 5.0678 14.0264 5 13.1493 5C11.3178 5 10.0643 6.15949 10.0643 8.28972V10.1267H8V12.6228H10.0643V19H12.5477Z" fill="#101820"/>
</g>
</svg>
