<svg width="24" height="24" viewBox="0 0 24 24" fill="none" xmlns="http://www.w3.org/2000/svg">
<path fill-rule="evenodd" clip-rule="evenodd" d="M18.0937 0.516189C16.7402 0.203811 14.5153 0 12 0C9.48474 0 7.25985 0.203811 5.90633 0.516189C3.20767 1.08249 1.08249 3.20767 0.516189 5.90633C0.203811 7.25985 0 9.48474 0 12C0 14.5153 0.203811 16.7402 0.516189 18.0937C1.08249 20.7923 3.20767 22.9175 5.90633 23.4838C7.25985 23.7962 9.48474 24 12 24C14.5153 24 16.7402 23.7962 18.0937 23.4838C20.7923 22.9175 22.9175 20.7923 23.4838 18.0937C23.7962 16.7402 24 14.5153 24 12C24 9.48474 23.7962 7.25985 23.4838 5.90633C22.9175 3.20767 20.7923 1.08249 18.0937 0.516189Z" fill="#ECECEA"/>
<mask id="mask0_3601_4938" style="mask-type:luminance" maskUnits="userSpaceOnUse" x="0" y="0" width="24" height="24">
<path fill-rule="evenodd" clip-rule="evenodd" d="M18.0937 0.516189C16.7402 0.203811 14.5153 0 12 0C9.48474 0 7.25985 0.203811 5.90633 0.516189C3.20767 1.08249 1.08249 3.20767 0.516189 5.90633C0.203811 7.25985 0 9.48474 0 12C0 14.5153 0.203811 16.7402 0.516189 18.0937C1.08249 20.7923 3.20767 22.9175 5.90633 23.4838C7.25985 23.7962 9.48474 24 12 24C14.5153 24 16.7402 23.7962 18.0937 23.4838C20.7923 22.9175 22.9175 20.7923 23.4838 18.0937C23.7962 16.7402 24 14.5153 24 12C24 9.48474 23.7962 7.25985 23.4838 5.90633C22.9175 3.20767 20.7923 1.08249 18.0937 0.516189Z" fill="white"/>
</mask>
<g mask="url(#mask0_3601_4938)">
<path opacity="0.4" fill-rule="evenodd" clip-rule="evenodd" d="M8.08264 8.26809C7.39146 8.26809 6.83203 7.70776 6.83203 7.01748C6.83203 6.32791 7.39146 5.76758 8.08264 5.76758C8.77201 5.76758 9.33224 6.32791 9.33224 7.01748C9.33224 7.70776 8.77201 8.26809 8.08264 8.26809ZM7.0039 16.1547H9.16044V9.21665H7.0039V16.1547ZM15.081 16.1548H17.236V12.349C17.236 10.4809 16.8328 9.04395 14.6492 9.04395C13.6001 9.04395 12.8967 9.61912 12.609 10.1645H12.5803V9.21659H10.5117V16.1548H12.6665V12.7225C12.6665 11.8175 12.8384 10.9409 13.9606 10.9409C15.0663 10.9409 15.081 11.9758 15.081 12.7807V16.1548Z" fill="#101820"/>
</g>
</svg>
