<svg width="40" height="40" viewBox="0 0 40 40" fill="none" xmlns="http://www.w3.org/2000/svg">
<path fill-rule="evenodd" clip-rule="evenodd" d="M30.0702 0.860315C27.8208 0.339685 24.1232 0 19.943 0C15.7629 0 12.0653 0.339685 9.81584 0.860315C5.33088 1.80414 1.799 5.34611 0.857864 9.84388C0.338717 12.0997 0 15.8079 0 20C0 24.1921 0.338717 27.9002 0.857864 30.1561C1.799 34.6539 5.33088 38.1959 9.81584 39.1397C12.0653 39.6603 15.7629 40 19.943 40C24.1232 40 27.8208 39.6603 30.0702 39.1397C34.5552 38.1959 38.087 34.6539 39.0282 30.1561C39.5473 27.9002 39.886 24.1921 39.886 20C39.886 15.8079 39.5473 12.0997 39.0282 9.84388C38.087 5.34611 34.5552 1.80414 30.0702 0.860315Z" fill="#00B388"/>
<mask id="mask0_3601_4805" style="mask-type:luminance" maskUnits="userSpaceOnUse" x="0" y="0" width="40" height="40">
<path fill-rule="evenodd" clip-rule="evenodd" d="M30.0702 0.860315C27.8208 0.339685 24.1232 0 19.943 0C15.7629 0 12.0653 0.339685 9.81584 0.860315C5.33088 1.80414 1.799 5.34611 0.857864 9.84388C0.338717 12.0997 0 15.8079 0 20C0 24.1921 0.338717 27.9002 0.857864 30.1561C1.799 34.6539 5.33088 38.1959 9.81584 39.1397C12.0653 39.6603 15.7629 40 19.943 40C24.1232 40 27.8208 39.6603 30.0702 39.1397C34.5552 38.1959 38.087 34.6539 39.0282 30.1561C39.5473 27.9002 39.886 24.1921 39.886 20C39.886 15.8079 39.5473 12.0997 39.0282 9.84388C38.087 5.34611 34.5552 1.80414 30.0702 0.860315Z" fill="white"/>
</mask>
<g mask="url(#mask0_3601_4805)">
<path d="M24.7369 30.7051C24.3584 29.8016 23.5551 29.1214 22.5777 28.9157C21.9928 28.7803 21.0315 28.692 19.9446 28.692C18.8578 28.692 17.8964 28.7803 17.3115 28.9157C16.3411 29.1199 15.5423 29.7919 15.1605 30.6857C15.0355 30.9784 14.7617 31.1888 14.4448 31.1601C14.339 31.1506 14.2373 31.1411 14.1601 31.1334C12.5962 30.9772 11.3669 30.7594 10.6527 30.5051C10.6515 30.5045 10.6501 30.5039 10.6484 30.5033C10.1692 30.3226 9.82812 29.8588 9.82812 29.315C9.82812 29.3015 9.82834 29.288 9.82875 29.2746C9.82985 29.2527 9.83113 29.2304 9.8326 29.2075C9.83302 29.2025 9.83348 29.1974 9.83396 29.1923C9.83532 29.1781 9.83618 29.1643 9.83652 29.151C9.95826 27.5186 10.9468 23.697 12.4233 19.3349C14.1112 14.3483 15.8764 10.3112 16.6724 9.52373C16.7994 9.39106 16.946 9.27995 17.1081 9.19426C17.1713 9.15803 17.2515 9.12339 17.3466 9.09071C17.3491 9.08985 17.3516 9.08899 17.3541 9.08815C17.8771 8.91079 18.8409 8.79199 19.9436 8.79199C21.0483 8.79199 22.0121 8.91079 22.5342 9.08783C22.5376 9.08899 22.5401 9.08985 22.5426 9.09071C22.6377 9.12339 22.7179 9.15803 22.7811 9.19426C22.9432 9.27995 23.0898 9.39106 23.2157 9.5223C23.2161 9.52273 23.2165 9.52321 23.2168 9.52373C24.0128 10.3112 25.778 14.3483 27.4659 19.3349C28.9424 23.697 29.931 27.5186 30.0527 29.151C30.053 29.1643 30.0539 29.1781 30.0553 29.1923C30.0557 29.1974 30.0562 29.2025 30.0566 29.2075C30.0581 29.2304 30.0594 29.2527 30.0605 29.2746C30.0609 29.288 30.0611 29.3015 30.0611 29.315C30.0611 29.8588 29.7201 30.3226 29.2408 30.5033C29.2391 30.5039 29.2377 30.5045 29.2365 30.5051C28.523 30.7591 27.2952 30.9768 25.7332 31.133C25.65 31.1413 25.5382 31.1517 25.4236 31.162C25.1189 31.1895 24.8551 30.9873 24.7369 30.7051Z" fill="white"/>
</g>
</svg>
