<svg width="30" height="30" viewBox="0 0 30 30" fill="none" xmlns="http://www.w3.org/2000/svg">
<circle cx="15" cy="15" r="15" fill="black"/>
<g clip-path="url(#clip0_3601_4888)">
<path d="M15.1872 6.03003C10.1287 6.03003 6.02783 10.1308 6.02783 15.1893C6.02783 20.248 10.1287 24.3485 15.1872 24.3485C20.2463 24.3485 24.3467 20.248 24.3467 15.1893C24.3467 10.1312 20.2463 6.03047 15.1871 6.03047L15.1872 6.03003ZM19.3877 19.2403C19.2236 19.5094 18.8714 19.5947 18.6023 19.4296C16.4518 18.116 13.7446 17.8185 10.5563 18.5469C10.2491 18.6169 9.9428 18.4244 9.8728 18.1171C9.80247 17.8097 9.99421 17.5035 10.3022 17.4335C13.7913 16.636 16.7841 16.9796 19.1984 18.455C19.4675 18.6202 19.5528 18.9713 19.3877 19.2403ZM20.5088 16.746C20.302 17.0824 19.8623 17.1885 19.5266 16.9817C17.0645 15.4681 13.3116 15.0298 10.3994 15.9138C10.0218 16.0279 9.62288 15.815 9.50825 15.438C9.3945 15.0604 9.60746 14.6622 9.98447 14.5474C13.3109 13.5381 17.4463 14.027 20.2736 15.7644C20.6094 15.9711 20.7155 16.4108 20.5088 16.7462V16.746ZM20.605 14.149C17.653 12.3957 12.7825 12.2344 9.96402 13.0899C9.51143 13.2271 9.0328 12.9716 8.89564 12.519C8.75849 12.0662 9.01377 11.5879 9.46669 11.4503C12.7021 10.4681 18.0806 10.6579 21.4793 12.6755C21.8873 12.9172 22.0208 13.4429 21.779 13.8495C21.5384 14.2566 21.0112 14.3908 20.6054 14.149H20.605Z" fill="#F9FCFE"/>
</g>
<defs>
<clipPath id="clip0_3601_4888">
<rect width="18.375" height="18.375" fill="white" transform="translate(6 6)"/>
</clipPath>
</defs>
</svg>
